<svg width="20" height="21" viewBox="0 0 20 21" fill="none" xmlns="http://www.w3.org/2000/svg">
<path fill-rule="evenodd" clip-rule="evenodd" d="M12.4996 3.19604C12.2787 3.19604 12.0996 3.37513 12.0996 3.59604C12.0996 3.81696 12.2787 3.99604 12.4996 3.99604H15.534L8.21677 11.3132C8.06056 11.4695 8.06056 11.7227 8.21677 11.8789C8.37298 12.0351 8.62624 12.0351 8.78245 11.8789L16.0996 4.56177V7.59605C16.0996 7.81696 16.2787 7.99605 16.4996 7.99605C16.7205 7.99605 16.8996 7.81696 16.8996 7.59605V3.59604C16.8996 3.37513 16.7205 3.19604 16.4996 3.19604H12.4996ZM4.49961 5.99604C4.16824 5.99604 3.89961 6.26467 3.89961 6.59604V15.596C3.89961 15.9274 4.16824 16.196 4.49961 16.196H13.4996C13.831 16.196 14.0996 15.9274 14.0996 15.596V11.096C14.0996 10.8751 14.2787 10.696 14.4996 10.696C14.7205 10.696 14.8996 10.8751 14.8996 11.096V15.596C14.8996 16.3692 14.2728 16.996 13.4996 16.996H4.49961C3.72641 16.996 3.09961 16.3692 3.09961 15.596V6.59604C3.09961 5.82285 3.72641 5.19604 4.49961 5.19604H8.99961C9.22052 5.19604 9.39961 5.37513 9.39961 5.59605C9.39961 5.81696 9.22052 5.99604 8.99961 5.99604H4.49961Z" fill="#000"/>
</svg>
