<svg xmlns="http://www.w3.org/2000/svg" xmlns:xlink="http://www.w3.org/1999/xlink" width="213" height="65"><defs><path id="A" d="M199.584 832h-7.168c-6.912 0-12.416-4.3-12.416-9.5 0-5.29 5.632-9.5 12.416-9.5h7.168c6.912 0 12.416 4.3 12.416 9.5s-5.632 9.5-12.416 9.5z"/><path id="B" d="M380.488 813H312.5c-4.644-1-7.87-5-7.87-9.1 0-5.4 5.676-9.9 12.64-9.9h29.54c6.965 0 12.64-4.1 12.64-9.5s-5.675-9.5-12.64-9.5h-143.18c-6.966 0-12.642 4.1-12.642 9.5s5.676 9.5 12.64 9.5h63.98c6.965 0 11.996 4.4 11.996 9.8v.4c0 4.1-2.967 7.8-7.353 8.8h-26.96c-6.965 0-12.64 4.6-12.64 10s5.675 10 12.64 10H380.36c6.965 0 12.64-4.6 12.64-10s-5.676-10-12.512-10z"/><path id="C" d="M291.625 786.87h-4.078v-4.087a5.252 5.252 0 0 1 4.078 4.087zm-4.078 6.175v-4.078h4.078a5.245 5.245 0 0 1-4.078 4.078zm-6.184-4.078h4.087v4.078a5.252 5.252 0 0 1-4.087-4.078zm4.087-6.184v4.087h-4.087a5.258 5.258 0 0 1 4.087-4.087zm-6.3 5.136a7.35 7.35 0 0 0 7.339 7.338 7.35 7.35 0 0 0 7.338-7.338 7.35 7.35 0 0 0-7.338-7.339 7.35 7.35 0 0 0-7.339 7.339z"/><path id="D" d="M315.936 799.853a1.5 1.5 0 0 1-1.687-.336l-.808-.807-24.28-24.616-.194-.154a4.72 4.72 0 0 0-4.992.062L259.55 798.7l-.808.808a1.505 1.505 0 0 1-1.687.336 1.51 1.51 0 0 1-.957-1.433c0-.4.158-.797.446-1.088l25.092-25.447a7.499 7.499 0 0 1 4.86-1.79c1.78 0 3.505.636 4.792 1.727l25.16 25.51a1.54 1.54 0 0 1 .446 1.089c0 .648-.357 1.184-.957 1.432zm-4.275 31.05h-12.806a22.261 22.261 0 0 0 3.6-2.097h.03v-.022a22.78 22.78 0 0 0 2.83-2.373 7.356 7.356 0 0 0 .295-10.08 7.28 7.28 0 0 0-5.277-2.463 7.342 7.342 0 0 0-5.412 2.15l-4.456 4.455a16.256 16.256 0 0 0-2.917 3.974v-5.076h-2.096v4.614a16.283 16.283 0 0 0-2.658-3.513l-4.456-4.456a7.307 7.307 0 0 0-5.414-2.15 7.283 7.283 0 0 0-5.276 2.465 7.356 7.356 0 0 0 .297 10.08c.88.882 1.836 1.66 2.83 2.373v.022h.03a22.261 22.261 0 0 0 3.599 2.097H261.34v-31.02l23.877-24.183a2.584 2.584 0 0 1 2.551-.037l23.894 24.218zm-30.63-2.097l2.53 2.083a20.285 20.285 0 0 1-8.69-2.083zm-6.064-7.7zm-4.97-4.1a5.196 5.196 0 0 1 2.988-1.042l.16-.002c.635 0 1.245.126 1.822.34v4.804zm10.213 8.397l-3.145-2.587v-5.11l3.145 3.14zm2.096 1.737v-4.07a13.997 13.997 0 0 1 2.942 6.492zm8.647 0l-2.942 2.422a13.997 13.997 0 0 1 2.941-6.491zm5.23-4.323l-3.135 2.587v-4.555l3.135-3.14zm2.107-1.7v-4.805a5.345 5.345 0 0 1 1.982-.338 5.19 5.19 0 0 1 2.989 1.043zm6.9 1.4h-5.325l4.8-3.946c.703 1.21.87 2.63.535 3.945zm-12.964 6.3h6.16a20.278 20.278 0 0 1-8.688 2.082zm9.54-2.097h-6.992l2.546-2.097h6.772l-.26.314a20.576 20.576 0 0 1-2.067 1.783zm-33.163-8.14l4.8 3.945h-5.326a5.25 5.25 0 0 1 .536-3.945zm.824 6.356c-.1-.098-.17-.2-.26-.314h6.772l2.546 2.097h-6.992a20.347 20.347 0 0 1-2.067-1.783zm30.702-50.64h6.3v-2.096h-6.3v-2.095h10.484v2.095h-2.097v2.096h2.097v14.127l-10.484-10.62zm17.82 21.572l-5.24-5.3V768h-14.677v7.674l-5.312-5.384a9.6 9.6 0 0 0-6.22-2.29c-2.277 0-4.486.813-6.286 2.352L255.05 795.86a3.622 3.622 0 0 0-1.05 2.561 3.59 3.59 0 0 0 2.25 3.37c.466.192.947.286 1.42.286a3.51 3.51 0 0 0 1.572-.386V833h54.516v-31.3a3.58 3.58 0 0 0 2.991.09 3.591 3.591 0 0 0 2.251-3.37c0-.964-.372-1.874-1.05-2.56z"/><path id="E" d="M286.5 820.85l-10.32-10.32a7.667 7.667 0 0 1-2.261-5.459c0-4.256 3.464-7.72 7.72-7.72a7.66 7.66 0 0 1 4.86 1.721 7.661 7.661 0 0 1 4.861-1.721c4.256 0 7.72 3.464 7.72 7.72 0 2.062-.803 4-2.26 5.46z"/></defs><g transform="translate(-180 -768)"><g fill="#dfecf9"><use xlink:href="#A"/><use xlink:href="#B"/></g><g fill="#333"><use xlink:href="#C"/><use xlink:href="#D"/></g><use xlink:href="#E" fill="#3b72cc"/></g></svg>